<svg width="36" height="37" viewBox="0 0 36 37" fill="none" xmlns="http://www.w3.org/2000/svg">
<path d="M11.48 30.5035C10.1824 30.3354 9.24991 29.004 9.39743 27.5295L11.329 8.26405C11.3619 7.9306 11.4517 7.60543 11.5943 7.30295H10.44C9.13343 7.30295 8.07486 8.50587 8.07486 9.99009V29.3792C8.07486 30.8638 9.13343 32.0667 10.44 32.0667H21.5614C21.8385 32.0667 22.1032 32.0094 22.3508 31.91L11.48 30.5035Z" fill="white"/>
<path fill-rule="evenodd" clip-rule="evenodd" d="M23.9368 30.9861C25.2354 31.1538 26.4066 30.0946 26.5541 28.6201L28.4856 9.35463C28.6338 7.88012 27.7019 6.54901 26.4037 6.38068L15.3543 4.95084C14.0554 4.78284 12.8845 5.8417 12.736 7.31621L10.8048 26.582C10.6573 28.0565 11.5895 29.3873 12.8871 29.5559L23.9368 30.9861ZM19.1244 12.2216C19.0679 12.7519 18.5676 16.7951 18.5676 16.7951L14.0411 16.2312C13.5696 16.1724 13.2912 18.4592 13.7627 18.5179L18.2892 19.0818L17.7325 23.6554C17.6841 24.0524 19.9474 24.3343 19.9957 23.9373L20.5525 19.3638C20.5525 19.3638 24.4887 19.8616 25.079 19.9277C25.6692 19.9938 25.9468 17.7144 25.3574 17.641L20.8309 17.077C20.8309 17.077 21.3154 13.032 21.3877 12.5035C21.4599 11.9751 19.181 11.6912 19.1244 12.2216Z" fill="white"/>
</svg>
